#!OML:ASF H:\Terrain\Patient Classification 1\Terrain2\Thursday\justin.ASF
:FULLY-SPECIFIED
:DEGREES
2649
root 29.7552 17.3307 -22.4638 1182.98 -83.423 -459.196
lowerback 2.49078 0.88424 4.54345
upperback 1.31198 1.20568 3.3493
thorax -0.0242144 0.57915 0.863816
lowerneck -12.6086 -1.65231 -7.85324
upperneck 31.6527 -1.9873 2.09966
head 12.7233 -1.88458 1.81143
rclavicle -3.42904e-015 1.59028e-015
rhumerus -31.0679 -8.75869 -83.0766
rradius 27.8872
rwrist -11.7384
rhand -22.0605 12.1376
rfingers 7.12502
rthumb 4.35032 -17.7977
lclavicle -3.42904e-015 1.59028e-015
lhumerus -35.3603 1.34432 86.0377
lradius 30.1146
lwrist 1.86598
lhand -17.6755 21.0779
lfingers 7.12502
lthumb 8.58346 50.8834
rfemur -4.20263 2.46574 26.8019
rtibia 25.1136
rfoot -21.794 4.07024
rtoes 5.98068
lfemur -12.7985 -0.882228 -9.36632
ltibia 40.6796
lfoot -15.5027 -13.354
ltoes 8.11225
2650
root 29.7324 17.321 -22.4985 1180.84 -83.2924 -457.184
lowerback 2.62591 0.789846 4.70488
upperback 1.41489 1.08135 3.46831
thorax 0.00500904 0.515977 0.898317
lowerneck -12.6413 -1.64594 -8.29037
upperneck 31.6604 -1.89369 2.2103
head 12.737 -1.88089 1.94339
rclavicle -4.42296e-015 2.06736e-014
rhumerus -30.9092 -8.44719 -83.1289
rradius 27.817
rwrist -11.7034
rhand -22.2871 12.0849
rfingers 7.12502
rthumb 4.1315 -17.8548
lclavicle -4.42296e-015 2.06736e-014
lhumerus -35.0406 1.2184 86.1606
lradius 29.9881
lwrist 2.10115
lhand -17.8435 21.6344
lfingers 7.12502
lthumb 8.42133 51.4465
rfemur -3.64529 2.1663 27.151
rtibia 24.4926
rfoot -21.5289 3.86329
rtoes 4.37479
lfemur -13.7748 -1.31359 -9.0683
ltibia 42.7081
lfoot -14.1014 -13.4102
ltoes 10.2894
2651
root 29.7116 17.3076 -22.5335 1178.3 -83.2727 -454.796
lowerback 2.74353 0.70536 4.73965
upperback 1.5144 0.968995 3.53167
thorax 0.0391552 0.459584 0.946268
lowerneck -12.6126 -1.63948 -8.58726
upperneck 31.6792 -1.86375 2.37563
head 12.7429 -1.88293 2.06349
rclavicle 3.97569e-016 -2.34566e-014
rhumerus -30.7642 -8.26298 -83.1696
rradius 27.6637
rwrist -11.6277
rhand -22.1641 12.5038
rfingers 7.12502
rthumb 4.25033 -17.4335
lclavicle 3.97569e-016 -2.34566e-014
lhumerus -34.9486 0.961726 86.3
lradius 30.1055
lwrist 2.76773
lhand -18.4674 22.0972
lfingers 7.12502
lthumb 7.81918 51.9326
rfemur -3.0688 1.67245 27.4118
rtibia 23.8178
rfoot -21.4409 3.15576
rtoes -0.640933
lfemur -14.8529 -2.11432 -8.94761
ltibia 44.9498
lfoot -12.8263 -12.7392
ltoes 10.5831
2652
root 29.6868 17.3309 -22.5664 1175.46 -83.0377 -452.021
lowerback 2.8945 0.684533 4.98769
upperback 1.5465 0.95118 3.63909
thorax -0.00959509 0.448593 0.91775
lowerneck -12.6557 -1.724 -8.72685
upperneck 31.7968 -1.97617 2.44973
head 12.8124 -1.94354 2.10068
rclavicle 1.44119e-015 1.74931e-014
rhumerus -30.7095 -8.38653 -83.1058
rradius 27.5537
rwrist -11.44
rhand -22.1269 12.6644
rfingers 7.12502
rthumb 4.28623 -17.2723
lclavicle 1.44119e-015 1.74931e-014
lhumerus -34.8318 0.796762 86.3776
lradius 30.2086
lwrist 3.08165
lhand -18.943 21.9731
lfingers 7.12502
lthumb 7.36014 51.8251
rfemur -2.47519 2.04519 27.7891
rtibia 23.1554
rfoot -21.114 3.88363
rtoes 5.10903
lfemur -16.1361 -2.31485 -8.50952
ltibia 47.2591
lfoot -11.4571 -12.4244
ltoes 7.82309
2653
root 29.6646 17.3435 -22.5982 1173.09 -82.7773 -449.684
lowerback 3.05286 0.700839 5.35342
upperback 1.59286 0.987694 3.66113
thorax -0.0428096 0.466699 0.734595
lowerneck -12.7972 -1.82146 -8.78732
upperneck 31.8687 -2.13038 2.59247
head 12.8856 -1.99914 2.14455
rclavicle 3.67752e-015 2.06736e-014
rhumerus -30.6004 -8.84015 -83.0718
rradius 27.462
rwrist -11.1263
rhand -21.8745 12.1126
rfingers 7.12502
rthumb 4.53 -17.8189
lclavicle 3.67752e-015 2.06736e-014
lhumerus -34.5295 0.7067 86.2649
lradius 30.2662
lwrist 2.83628
lhand -18.4138 21.6922
lfingers 7.12502
lthumb 7.87097 51.5257
rfemur -1.99886 2.07962 28.2009
rtibia 22.4791
rfoot -20.8069 4.02527
rtoes 6.68162
lfemur -17.6812 -1.59398 -7.91257
ltibia 49.6786
lfoot -9.46648 -12.986
ltoes 5.83559
2654
root 29.6458 17.3482 -22.634 1170.57 -82.374 -447.207
lowerback 3.24852 0.683131 5.78769
upperback 1.63499 0.981994 3.77823
thorax -0.102182 0.461443 0.61227
lowerneck -12.8314 -1.91012 -9.08309
upperneck 31.8824 -2.25171 2.8326
head 12.9153 -2.0554 2.27196
rclavicle 6.95746e-015 2.38542e-014
rhumerus -30.5579 -8.96623 -83.0444
rradius 27.4933
rwrist -10.9845
rhand -21.7622 11.8747
rfingers 7.12502
rthumb 4.63837 -18.0545
lclavicle 6.95746e-015 2.38542e-014
lhumerus -34.2969 0.942167 86.1378
lradius 30.3437
lwrist 2.35367
lhand -17.4333 21.3309
lfingers 7.12502
lthumb 8.8172 51.1267
rfemur -1.60352 2.09991 28.8107
rtibia 21.946
rfoot -20.5328 3.85311
rtoes 7.98448
lfemur -19.39 -1.14252 -7.23975
ltibia 52.0874
lfoot -7.55906 -12.9303
ltoes 2.17393
2655
root 29.6287 17.3478 -22.6676 1168.54 -81.7015 -445.202
lowerback 3.40334 0.56459 6.45064
upperback 1.69503 0.838619 4.03331
thorax -0.122683 0.385816 0.511259
lowerneck -12.9232 -1.92045 -9.59732
upperneck 32.0029 -2.22031 3.12581
head 12.9962 -2.06976 2.48138
rclavicle 4.07509e-015 1.19271e-015
rhumerus -30.4746 -8.61126 -83.0959
rradius 27.546
rwrist -10.9803
rhand -22.0143 12.2073
rfingers 7.12502
rthumb 4.39499 -17.7271
lclavicle 4.07509e-015 1.19271e-015
lhumerus -34.2102 1.37565 86.0947
lradius 30.5473
lwrist 2.16472
lhand -17.2934 21.2088
lfingers 7.12502
lthumb 8.95219 50.9989
rfemur -1.28077 1.9105 29.6784
rtibia 21.4491
rfoot -20.321 3.69937
rtoes 8.24278
lfemur -21.157 -0.968061 -6.35578
ltibia 54.4644
lfoot -5.85901 -12.5684
ltoes -3.62659
2656
root 29.6114 17.3383 -22.6924 1167.02 -81.2714 -443.702
lowerback 3.52031 0.331313 6.99111
upperback 1.81299 0.53446 4.19953
thorax -0.071534 0.233538 0.393808
lowerneck -13.3125 -1.81973 -10.1142
upperneck 32.2493 -1.97672 3.38199
head 13.1763 -1.99871 2.71059
rclavicle -2.68359e-015 -5.96354e-015
rhumerus -30.226 -7.86056 -83.3188
rradius 27.5886
rwrist -11.083
rhand -21.9523 12.4136
rfingers 7.12502
rthumb 4.45482 -17.5196
lclavicle -2.68359e-015 -5.96354e-015
lhumerus -34.2091 1.9708 85.9997
lradius 30.9661
lwrist 2.30697
lhand -17.8924 21.576
lfingers 7.12502
lthumb 8.37413 51.39
rfemur -0.96013 1.34904 30.1831
rtibia 20.9199
rfoot -20.2241 3.81537
rtoes 6.48117
lfemur -22.7414 -0.740316 -5.66896
ltibia 56.6946
lfoot -3.75009 -12.961
ltoes -3.88223
2657
root 29.5917 17.3313 -22.7179 1165.7 -81.0596 -442.491
lowerback 3.70979 0.161413 7.29334
upperback 1.9649 0.31618 4.30326
thorax -0.0269218 0.125202 0.341455
lowerneck -13.5907 -1.72917 -10.6011
upperneck 32.2722 -1.76469 3.69031
head 13.2376 -1.92084 2.95015
rclavicle -5.96354e-016 -1.39149e-014
rhumerus -29.9865 -7.00788 -83.5296
rradius 27.7187
rwrist -11.4535
rhand -21.659 12.4071
rfingers 7.12502
rthumb 4.738 -17.5199
lclavicle -5.96354e-016 -1.39149e-014
lhumerus -34.0591 2.68568 85.8928
lradius 31.2685
lwrist 2.27728
lhand -18.2158 21.5761
lfingers 7.12502
lthumb 8.06203 51.4023
rfemur -0.563196 0.806398 30.4706
rtibia 20.4503
rfoot -20.1612 3.82915
rtoes 4.48776
lfemur -24.053 -1.83736 -5.38065
ltibia 58.6775
lfoot -2.53003 -12.2958
ltoes -2.56372
2658
root 29.5682 17.3368 -22.7478 1165 -80.8191 -441.955
lowerback 3.91483 0.300117 7.57712
upperback 2.08866 0.516338 4.32543
thorax 0.000161159 0.226927 0.200183
lowerneck -13.574 -1.86607 -10.708
upperneck 32.1766 -2.016 3.96848
head 13.2188 -1.99946 3.04065
rclavicle 3.57812e-015 7.95139e-015
rhumerus -29.976 -6.97472 -83.5548
rradius 27.9182
rwrist -11.9444
rhand -21.5225 12.1635
rfingers 7.12502
rthumb 4.86983 -17.7605
lclavicle 3.57812e-015 7.95139e-015
lhumerus -33.7669 2.84229 85.804
lradius 31.3662
lwrist 1.3489
lhand -17.1459 20.7588
lfingers 7.12502
lthumb 9.09455 50.5427
rfemur -0.084325 0.693452 30.8498
rtibia 20.0066
rfoot -19.9925 3.78496
rtoes 4.49757
lfemur -25.3118 -2.08702 -5.02473
ltibia 60.4293
lfoot -1.87126 -12.2375
ltoes -1.49041
2659
root 29.5431 17.34 -22.7739 1164.97 -80.4542 -442.164
lowerback 4.14766 0.544582 8.00531
upperback 2.25687 0.859306 4.36117
thorax 0.0710195 0.401848 -0.0122248
lowerneck -13.6217 -2.13938 -10.6363
upperneck 32.197 -2.45807 4.06612
head 13.2793 -2.16762 3.00083
rclavicle 4.27387e-015 2.8625e-014
rhumerus -29.9628 -7.32464 -83.4729
rradius 28.0586
rwrist -12.2015
rhand -21.5706 12.0201
rfingers 7.12502
rthumb 4.82341 -17.905
lclavicle 4.27387e-015 2.8625e-014
lhumerus -33.4642 2.36811 85.8987
lradius 31.5021
lwrist 0.659711
lhand -16.2447 20.3073
lfingers 7.12502
lthumb 9.96408 50.0515
rfemur 0.575721 1.08451 31.3342
rtibia 19.4901
rfoot -19.7036 4.22575
rtoes 8.33299
lfemur -26.382 -1.67319 -4.4856
ltibia 61.9446
lfoot -1.46577 -12.967
ltoes -0.60597
